<?xml version="1.0" standalone="no"?>
<!DOCTYPE svg PUBLIC "-//W3C//DTD SVG 20010904//EN"
 "http://www.w3.org/TR/2001/REC-SVG-20010904/DTD/svg10.dtd">
<svg version="1.0" xmlns="http://www.w3.org/2000/svg"
 width="1080.000000pt" height="1080.000000pt" viewBox="0 0 1080.000000 1080.000000"
 preserveAspectRatio="xMidYMid meet">

<g transform="translate(0.000000,1080.000000) scale(0.100000,-0.100000)"
fill="#000000" stroke="none">
<path d="M5176 9799 c-165 -15 -224 -33 -273 -81 -48 -47 -53 -74 -28 -136
l16 -37 12 25 c13 25 14 26 182 61 63 14 552 6 655 -10 122 -19 135 -18 134 2
-1 9 2 17 7 17 12 0 11 67 -1 75 -6 4 -7 11 -4 17 4 7 2 8 -4 4 -7 -4 -12 -31
-12 -62 0 -30 -4 -54 -8 -54 -4 0 -6 31 -4 69 l4 70 -38 10 c-126 33 -446 48
-638 30z m24 -69 c0 -27 -5 -40 -17 -45 -10 -3 -19 -1 -21 4 -2 6 -8 9 -13 5
-5 -3 -9 13 -9 35 0 40 11 51 43 43 12 -3 17 -15 17 -42z m48 3 c-4 -60 -23
-58 -24 2 0 32 3 45 13 45 11 0 13 -12 11 -47z m282 3 c0 -25 -4 -48 -10 -51
-6 -4 -10 13 -10 44 0 28 5 51 10 51 6 0 10 -20 10 -44z m58 24 c-14 -22 -24
-19 -15 5 4 8 11 15 17 15 6 0 6 -7 -2 -20z m-465 3 c-8 -3 -13 -23 -13 -49 0
-28 -4 -43 -10 -39 -11 7 -14 78 -3 88 3 4 13 7 22 6 10 0 12 -2 4 -6z m187
-39 c0 -33 -12 -45 -25 -24 -9 15 5 71 16 64 5 -3 9 -21 9 -40z m360 8 c0 -21
-7 -47 -15 -58 -17 -21 -17 -20 0 60 3 14 0 26 -8 29 -7 3 -5 6 6 6 13 1 17
-7 17 -37z m50 -23 c0 -27 -4 -49 -10 -49 -5 0 -10 25 -10 56 0 34 4 53 10 49
6 -3 10 -28 10 -56z m-658 -26 c-2 -7 -8 -10 -13 -7 -11 6 -12 68 -1 78 8 9
20 -52 14 -71z m407 65 c-1 -7 -5 -24 -9 -38 -7 -22 -8 -21 -9 13 -1 20 4 37
9 37 6 0 10 -6 9 -12z m301 -44 c0 -21 -4 -33 -10 -29 -5 3 -10 22 -10 41 0
21 4 33 10 29 6 -3 10 -22 10 -41z m60 -4 c0 -22 -3 -40 -7 -40 -5 0 -7 17 -6
37 2 44 2 43 8 43 3 0 5 -18 5 -40z m-813 -7 c-3 -10 -5 -4 -5 12 0 17 2 24 5
18 2 -7 2 -21 0 -30z m573 0 c0 -22 -2 -25 -10 -13 -13 20 -13 40 0 40 6 0 10
-12 10 -27z"/>
<path d="M5150 9735 c0 -14 5 -25 10 -25 6 0 10 11 10 25 0 14 -4 25 -10 25
-5 0 -10 -11 -10 -25z"/>
<path d="M5788 9203 c6 -2 18 -2 25 0 6 3 1 5 -13 5 -14 0 -19 -2 -12 -5z"/>
<path d="M5860 9196 c0 -2 7 -7 16 -10 8 -3 12 -2 9 4 -6 10 -25 14 -25 6z"/>
<path d="M5252 9069 c2 -7 10 -15 17 -17 8 -3 12 1 9 9 -2 7 -10 15 -17 17 -8
3 -12 -1 -9 -9z"/>
<path d="M5352 9071 c2 -7 7 -12 11 -12 12 1 9 15 -3 20 -7 2 -11 -2 -8 -8z"/>
<path d="M5452 9071 c2 -7 7 -12 11 -12 12 1 9 15 -3 20 -7 2 -11 -2 -8 -8z"/>
<path d="M5080 9060 c0 -5 5 -10 11 -10 5 0 7 5 4 10 -3 6 -8 10 -11 10 -2 0
-4 -4 -4 -10z"/>
<path d="M5160 9060 c0 -5 5 -10 10 -10 6 0 10 5 10 10 0 6 -4 10 -10 10 -5 0
-10 -4 -10 -10z"/>
<path d="M5550 9059 c0 -5 5 -7 10 -4 6 3 10 8 10 11 0 2 -4 4 -10 4 -5 0 -10
-5 -10 -11z"/>
<path d="M5640 9060 c0 -5 5 -10 10 -10 6 0 10 5 10 10 0 6 -4 10 -10 10 -5 0
-10 -4 -10 -10z"/>
<path d="M5720 9060 c0 -5 5 -10 10 -10 6 0 10 5 10 10 0 6 -4 10 -10 10 -5 0
-10 -4 -10 -10z"/>
<path d="M5780 9049 c0 -5 5 -7 10 -4 6 3 10 8 10 11 0 2 -4 4 -10 4 -5 0 -10
-5 -10 -11z"/>
<path d="M4955 9040 c3 -5 8 -10 11 -10 2 0 4 5 4 10 0 6 -5 10 -11 10 -5 0
-7 -4 -4 -10z"/>
<path d="M5346 8883 c-11 -11 -6 -23 9 -23 8 0 15 4 15 9 0 13 -16 22 -24 14z"/>
<path d="M5446 8881 c-4 -5 -2 -12 3 -15 5 -4 12 -2 15 3 4 5 2 12 -3 15 -5 4
-12 2 -15 -3z"/>
<path d="M5250 8870 c0 -5 5 -10 10 -10 6 0 10 5 10 10 0 6 -4 10 -10 10 -5 0
-10 -4 -10 -10z"/>
<path d="M5725 8871 c-3 -5 -1 -12 5 -16 5 -3 10 1 10 9 0 18 -6 21 -15 7z"/>
<path d="M5000 8860 c0 -5 5 -10 10 -10 6 0 10 5 10 10 0 6 -4 10 -10 10 -5 0
-10 -4 -10 -10z"/>
<path d="M5785 8861 c-3 -5 -1 -12 5 -16 5 -3 10 1 10 9 0 18 -6 21 -15 7z"/>
<path d="M5020 8701 c-14 -4 -20 -10 -14 -14 8 -5 8 -20 0 -56 -16 -70 -23
-71 -31 -4 -8 75 -8 74 -21 65 -15 -9 -24 -241 -9 -236 5 2 9 30 8 62 l-1 57
11 -47 c5 -27 14 -48 18 -48 4 0 11 20 15 45 3 25 10 48 15 51 14 8 11 -80 -3
-94 -9 -9 -2 -12 33 -11 74 1 74 1 74 117 0 95 -1 102 -20 102 -19 0 -20 -7
-20 -102 0 -76 -3 -102 -13 -106 -11 -3 -13 18 -10 112 1 64 1 116 -2 115 -3
-1 -16 -4 -30 -8z"/>
<path d="M5622 8698 c-18 -18 -15 -33 3 -18 12 10 19 10 27 2 9 -9 9 -23 0
-58 -18 -67 -9 -64 12 3 17 55 17 57 0 70 -22 16 -27 16 -42 1z"/>
<path d="M5281 8679 c-55 -59 -28 -199 39 -199 29 0 65 34 54 52 -8 13 -24 9
-24 -6 0 -7 -6 -19 -14 -25 -25 -21 -37 12 -34 95 2 65 6 79 20 82 12 2 19 -5
24 -22 9 -38 24 -32 24 9 0 33 -2 35 -35 35 -22 0 -41 -7 -54 -21z"/>
<path d="M5416 8681 c-42 -46 -38 -144 7 -189 48 -47 101 7 100 102 -1 83 -64
135 -107 87z m58 -7 c10 -25 7 -157 -4 -174 -7 -12 -12 -12 -22 -2 -14 14 -18
144 -6 175 9 21 24 22 32 1z"/>
<path d="M5516 8692 c-3 -2 1 -14 9 -26 11 -18 47 -106 70 -171 6 -19 7 -19
20 5 7 14 11 27 8 30 -3 3 -8 -1 -11 -9 -3 -9 -10 -2 -18 19 -8 17 -12 36 -9
40 3 4 -2 27 -10 50 -8 23 -13 46 -10 50 5 8 -41 20 -49 12z"/>
<path d="M5815 8580 c0 -89 3 -120 13 -120 8 0 12 17 13 48 1 43 2 45 10 17 5
-19 7 4 4 64 -5 86 -12 110 -35 111 -3 0 -5 -54 -5 -120z"/>
<path d="M5145 8585 c0 -98 1 -105 20 -105 19 0 20 5 16 90 -2 61 1 95 9 105
11 13 8 15 -16 15 l-29 0 0 -105z"/>
<path d="M5222 8511 c-10 -28 -9 -31 9 -31 16 0 18 5 13 28 -9 37 -10 37 -22
3z"/>
<path d="M4928 8383 c7 -3 16 -2 19 1 4 3 -2 6 -13 5 -11 0 -14 -3 -6 -6z"/>
<path d="M5257 8373 c-24 -4 -28 -9 -25 -31 3 -27 5 -27 121 -41 117 -14 119
-14 159 9 34 19 50 22 104 17 35 -3 68 -8 73 -11 5 -3 10 -64 10 -135 3 -237
3 -237 221 -611 40 -69 81 -139 91 -157 38 -66 72 -119 92 -141 23 -25 77
-112 132 -212 19 -36 41 -74 48 -84 109 -172 136 -226 137 -272 0 -16 5 -35
11 -41 17 -17 30 -268 27 -525 l-3 -223 -179 -7 c-99 -4 -182 -5 -185 -3 -2 3
5 15 16 28 21 21 21 33 23 307 l2 285 -32 85 c-17 47 -38 108 -47 135 -18 63
-108 242 -151 304 -18 25 -37 64 -43 85 -7 27 -13 35 -19 26 -6 -9 -12 -5 -24
18 -9 17 -16 38 -16 47 0 8 -7 15 -16 15 -11 0 -14 5 -10 16 4 12 2 15 -9 10
-12 -4 -15 4 -15 43 0 32 -5 51 -14 54 -9 4 -12 15 -8 32 3 20 -2 33 -22 51
-14 14 -28 35 -30 47 -28 130 -84 300 -96 292 -5 -3 -6 4 -3 15 4 14 0 20 -12
20 -11 0 -15 5 -11 15 3 8 -1 31 -9 52 -7 21 -14 34 -15 28 -2 -5 -5 3 -9 19
-4 21 -14 32 -33 37 -21 5 -28 4 -28 -7 0 -8 -16 -30 -35 -50 -23 -23 -37 -48
-41 -74 -5 -30 -11 -40 -25 -40 -11 0 -19 -7 -19 -15 0 -8 -6 -15 -13 -15 -7
0 -12 -13 -12 -32 0 -20 -5 -32 -12 -31 -6 2 -15 -6 -18 -17 -3 -10 -19 -21
-35 -25 -16 -3 -34 -13 -40 -21 -7 -7 -16 -11 -21 -8 -5 3 -14 -5 -19 -18 -5
-13 -14 -30 -18 -38 -27 -47 -93 -191 -103 -225 -7 -22 -20 -53 -30 -70 -11
-16 -19 -37 -19 -45 0 -8 -11 -36 -25 -62 -14 -26 -25 -54 -25 -63 0 -8 -4
-15 -10 -15 -5 0 -10 -9 -10 -19 0 -11 -4 -22 -9 -25 -5 -4 -12 -24 -16 -46
-4 -22 -18 -57 -33 -77 -34 -50 -80 -131 -93 -165 -6 -16 -16 -28 -22 -28 -7
0 -21 -19 -32 -43 -27 -59 -56 -96 -69 -91 -17 7 -80 -233 -69 -262 2 -7 0
-22 -6 -33 -6 -11 -7 -22 -2 -25 13 -8 21 -87 11 -106 -18 -34 -12 -167 9
-208 4 -9 6 -22 4 -29 -2 -6 10 -14 29 -18 38 -8 60 -23 52 -36 -3 -5 11 -9
31 -9 73 0 9 -29 -74 -33 -24 -2 -37 -9 -44 -24 -12 -27 -33 -32 -137 -34
l-85 -1 63 -19 c68 -22 76 -39 23 -50 -39 -8 -45 -14 -38 -33 5 -11 19 -14 66
-10 33 2 72 9 87 14 44 17 41 24 63 -180 6 -52 12 -143 13 -202 1 -60 5 -108
9 -108 5 0 6 -7 3 -15 -4 -9 0 -15 10 -15 9 0 16 -7 16 -15 0 -23 53 -18 157
14 181 57 358 82 573 81 149 -1 197 -4 292 -20 90 -14 106 -13 113 10 9 27 33
26 156 -10 116 -33 123 -35 114 -19 -6 9 -7 147 -1 304 1 28 -3 59 -8 70 -5
11 -11 37 -12 57 -2 42 -17 36 168 64 109 16 118 16 142 0 31 -19 30 -5 11
-261 -8 -110 -15 -224 -15 -252 l0 -53 48 -22 47 -23 0 -100 c0 -55 -6 -266
-13 -470 -6 -203 -14 -453 -17 -555 -3 -102 -7 -277 -10 -390 -3 -113 -10
-407 -15 -655 -6 -247 -13 -474 -16 -504 -5 -39 -25 -89 -71 -178 -36 -69 -62
-131 -59 -138 3 -8 1 -17 -3 -19 -9 -6 -2 -56 8 -56 3 0 6 -16 7 -35 0 -19 -3
-35 -8 -35 -4 0 -8 -13 -8 -30 0 -34 1 -34 -34 -20 -31 11 -33 35 -8 80 13 25
14 34 5 37 -7 3 -13 11 -13 19 0 12 -35 14 -202 15 -112 1 -211 1 -220 0 -23
-3 -23 4 3 30 12 12 17 25 12 29 -4 4 -206 11 -448 15 -242 3 -459 8 -482 10
-48 5 -80 -18 -41 -29 15 -5 18 -9 10 -13 -7 -3 -19 1 -27 7 -12 10 -23 9 -52
-5 -43 -21 -65 -25 -143 -26 -39 -1 -49 -4 -35 -9 11 -5 30 -9 43 -9 13 -1 21
-5 18 -9 -3 -4 0 -26 6 -48 5 -21 11 -54 12 -71 2 -28 -1 -33 -20 -33 -13 0
-25 -4 -29 -10 -3 -5 -22 -14 -41 -19 -38 -11 -93 2 -95 22 -2 21 -1 70 4 185
l5 113 -50 107 c-33 71 -51 124 -54 157 -2 28 -6 529 -9 1115 -3 586 -8 1091
-11 1123 l-7 57 -43 0 c-55 0 -96 18 -90 39 10 34 8 280 -3 366 -12 102 -14
348 -4 572 6 147 7 151 30 162 13 6 39 11 58 11 27 0 35 4 35 18 0 25 -10 33
-29 23 -9 -5 -36 -11 -61 -15 -43 -6 -46 -5 -47 16 -1 13 -2 142 -3 288 -2
350 16 457 92 550 22 29 35 36 51 33 18 -5 20 -3 10 8 -15 15 -18 43 -4 35 5
-4 12 0 14 6 4 10 6 10 6 0 1 -7 5 -11 10 -8 5 4 7 -4 4 -16 -3 -13 14 5 36
40 23 34 41 67 41 72 0 4 10 21 23 37 25 32 33 44 82 129 19 34 33 68 29 77
-3 8 -1 18 5 22 7 4 8 0 4 -11 -11 -29 14 -7 31 28 20 38 20 49 2 42 -8 -3
-17 -1 -20 4 -3 6 1 12 9 16 8 3 15 15 15 27 0 23 80 181 106 210 9 10 13 22
10 27 -3 5 3 12 14 15 20 5 28 42 10 49 -6 2 -6 8 0 18 8 12 10 12 10 -5 1
-18 2 -18 13 -4 7 8 21 21 32 27 11 6 14 12 8 12 -20 0 -15 28 7 40 11 6 20
19 20 30 0 10 4 21 9 24 4 3 8 37 8 77 0 39 4 74 9 78 5 3 10 35 10 71 1 48 0
58 -6 37 -5 -16 -13 -34 -18 -40 -22 -27 -81 -150 -76 -158 3 -5 0 -8 -7 -7
-6 2 -14 -3 -17 -11 -3 -9 0 -11 8 -6 7 4 5 -5 -4 -24 -9 -17 -21 -31 -26 -31
-6 0 -10 -5 -10 -11 0 -6 7 -9 14 -6 10 4 13 1 9 -9 -3 -7 -11 -14 -17 -14
-10 0 -110 -139 -151 -211 -5 -10 -22 -39 -38 -65 -15 -26 -25 -49 -23 -51 2
-3 17 17 32 44 15 26 38 62 51 79 13 17 23 34 23 38 0 12 80 116 89 116 5 0
-10 -29 -32 -64 -62 -95 -97 -153 -139 -229 -21 -38 -53 -87 -73 -109 -19 -23
-35 -50 -35 -59 0 -12 -5 -16 -14 -13 -9 3 -22 -11 -37 -43 -20 -42 -45 -83
-109 -178 -46 -68 -110 -191 -125 -237 -14 -44 -18 -121 -25 -458 -6 -264 -5
-406 1 -408 6 -3 6 -9 -1 -17 -7 -9 -8 -31 -1 -71 12 -72 18 -417 26 -1409 9
-1274 21 -1842 36 -1765 4 19 7 -54 7 -163 0 -167 2 -202 15 -214 11 -12 47
-18 129 -23 62 -4 97 -8 78 -9 -19 -1 -41 -5 -48 -10 -18 -11 -25 -136 -14
-220 l9 -61 -38 0 c-20 0 -39 4 -41 8 -1 5 -19 11 -38 15 -19 3 -29 3 -22 0
19 -7 14 -31 -8 -38 -21 -7 -28 -25 -10 -25 6 0 10 -4 10 -10 0 -5 -9 -10 -21
-10 -12 0 -23 -8 -26 -20 -3 -11 -12 -20 -20 -20 -13 0 -13 -3 -3 -15 7 -8 14
-36 15 -63 3 -62 3 -62 16 -62 6 0 9 7 5 15 -16 44 40 60 109 31 40 -17 47
-31 10 -22 -14 4 -25 2 -25 -3 0 -5 -17 -12 -37 -16 -21 -4 -44 -11 -50 -17
-9 -7 -22 -7 -43 1 l-31 10 7 -37 c4 -20 13 -41 20 -45 10 -6 14 -34 14 -105
0 -73 4 -103 16 -120 10 -15 15 -37 12 -61 l-3 -38 90 5 c49 2 94 8 100 13 15
14 61 10 75 -6 12 -14 15 -14 30 0 9 8 22 15 28 15 7 0 22 12 35 26 12 14 35
32 50 40 15 8 25 19 22 24 -6 10 7 14 33 11 6 -1 12 3 12 9 0 5 -6 10 -12 11
-7 1 11 7 41 14 39 10 60 11 74 3 11 -5 32 -7 48 -4 21 4 27 2 23 -9 -11 -29
29 -33 126 -13 107 22 144 23 680 14 458 -8 472 -8 478 -24 2 -7 -9 -15 -27
-18 -35 -7 -35 -8 -20 -35 10 -19 12 -19 35 -4 23 15 27 14 70 -11 25 -15 51
-39 57 -53 19 -43 42 -53 50 -21 7 28 34 36 71 21 49 -20 107 -32 154 -31 24
1 42 -4 42 -10 0 -6 4 -9 9 -6 11 7 23 170 26 359 3 139 4 149 26 168 l22 19
-23 20 c-13 11 -27 20 -31 20 -4 0 -9 7 -11 15 -2 11 -8 11 -28 -5 l-25 -20
31 0 c31 0 74 -23 63 -34 -3 -4 -19 0 -35 9 -16 8 -46 15 -66 15 -46 0 -49 12
-7 27 17 7 33 21 36 32 3 12 12 21 19 21 17 0 19 26 3 36 -7 4 -16 -1 -21 -9
-5 -9 -19 -22 -31 -28 -21 -11 -21 -11 -5 7 14 16 16 45 16 219 -1 260 13 721
22 754 7 24 8 23 14 -14 4 -22 9 -44 10 -50 6 -23 16 464 17 790 0 338 13
1439 22 1890 3 157 2 187 -3 105 -4 -63 -10 -225 -14 -360 -9 -319 -17 -512
-22 -507 -15 14 3 837 24 1107 11 144 6 684 -7 781 -12 88 -36 171 -75 249
-33 69 -195 340 -343 575 -27 44 -90 143 -138 220 -98 156 -152 259 -161 304
-4 18 -11 28 -17 24 -6 -4 -8 0 -4 10 3 10 2 17 -3 17 -6 0 -10 10 -10 23 -1
12 -10 56 -20 97 -11 41 -18 63 -16 47 3 -22 1 -25 -10 -16 -11 9 -14 6 -14
-17 -1 -52 -29 44 -32 106 -1 30 -5 63 -10 73 -7 14 -4 17 21 17 16 0 36 2 44
6 11 4 17 -13 26 -84 6 -48 11 -105 11 -125 0 -20 4 -37 10 -37 5 0 8 6 5 13
-5 16 -19 204 -17 239 1 25 -3 28 -51 37 -29 6 -95 10 -147 9 -52 -1 -158 1
-235 4 -77 4 -153 4 -168 1z m-847 -1437 c0 -3 -4 -8 -10 -11 -5 -3 -10 -1
-10 4 0 6 5 11 10 11 6 0 10 -2 10 -4z m25 -26 c3 -5 -1 -10 -10 -10 -9 0 -13
5 -10 10 3 6 8 10 10 10 2 0 7 -4 10 -10z m565 -219 c-11 -28 -8 -119 7 -156
2 -7 -16 -36 -41 -64 -25 -29 -46 -56 -46 -61 0 -12 -40 -34 -47 -26 -4 3 1
14 10 24 10 10 17 23 17 28 0 6 15 25 34 43 27 26 35 43 38 77 2 28 -1 44 -8
44 -16 0 -25 80 -11 96 7 7 18 21 26 29 22 27 37 3 21 -34z m238 14 c-12 -27
-28 -34 -28 -12 0 14 20 37 32 37 4 0 2 -11 -4 -25z m602 5 c29 -29 26 -82 -9
-130 -32 -45 -42 -44 -31 5 4 18 4 53 -1 77 -4 24 -8 49 -9 56 0 19 28 14 50
-8z m-266 -6 c3 -8 2 -12 -4 -9 -6 3 -10 10 -10 16 0 14 7 11 14 -7z m-304
-70 c0 -8 -4 -14 -10 -14 -5 0 -10 9 -10 21 0 11 5 17 10 14 6 -3 10 -13 10
-21z m-415 -84 c-27 -44 -31 -60 -13 -60 16 0 48 31 48 47 0 7 5 13 10 13 20
0 9 -29 -25 -70 -19 -23 -35 -52 -35 -65 0 -13 -7 -25 -15 -29 -13 -4 -15 7
-15 70 0 75 16 127 42 137 26 9 27 -5 3 -43z m341 23 c-10 -10 -19 5 -10 18 6
11 8 11 12 0 2 -7 1 -15 -2 -18z m774 -4 c7 -17 14 -43 15 -58 1 -15 10 -42
20 -60 9 -18 12 -30 6 -27 -6 4 -11 -1 -11 -12 0 -10 -8 -27 -19 -36 -17 -15
-19 -15 -25 -1 -3 9 -6 30 -6 46 0 21 -11 40 -35 65 -33 33 -47 74 -25 74 6 0
10 -9 10 -20 0 -24 47 -57 61 -43 6 6 0 22 -16 43 -30 40 -32 60 -6 60 11 0
23 -12 31 -31z m-720 -46 c-1 -13 -40 -56 -46 -50 -7 7 25 57 37 57 5 0 9 -3
9 -7z m220 -40 c0 -5 -5 -15 -10 -23 -8 -12 -10 -11 -10 8 0 12 5 22 10 22 6
0 10 -3 10 -7z m450 -95 c0 -4 -7 -5 -15 -1 -17 6 -45 53 -45 74 0 13 59 -60
60 -73z m-45 -43 c1 -27 -5 -31 -23 -13 -8 8 -8 17 -1 30 13 24 22 17 24 -17z
m-653 -30 c3 -62 1 -78 -13 -69 -12 7 -12 124 0 124 5 0 11 -25 13 -55z m-274
28 c-2 -10 -13 -22 -26 -28 -16 -7 -22 -18 -22 -41 0 -35 -25 -63 -41 -47 -6
6 -9 30 -7 54 3 39 6 44 30 47 14 2 32 10 38 18 17 19 32 18 28 -3z m627 -140
c-16 -27 -16 -28 -11 -3 3 14 9 57 13 95 l8 70 3 -67 c2 -48 -2 -76 -13 -95z
m162 101 c12 -26 8 -54 -8 -54 -5 0 -9 4 -9 9 0 5 -3 23 -6 40 -8 37 6 41 23
5z m198 15 c4 -6 9 -29 11 -52 3 -36 0 -45 -21 -60 -14 -10 -25 -13 -25 -7 0
5 5 10 10 10 6 0 10 5 10 10 0 6 -6 10 -14 10 -9 0 -12 11 -9 38 2 20 5 43 8
50 5 15 21 16 30 1z m-845 -5 c0 -13 -21 -44 -30 -44 -14 0 -12 24 2 38 13 13
28 16 28 6z m568 -59 c-6 -14 -13 -23 -16 -21 -7 7 9 46 18 46 5 0 4 -11 -2
-25z m-351 -57 c-3 -7 -5 -2 -5 12 0 14 2 19 5 13 2 -7 2 -19 0 -25z m243 28
c0 -3 -4 -8 -10 -11 -5 -3 -10 -1 -10 4 0 6 5 11 10 11 6 0 10 -2 10 -4z m-90
-15 c0 -6 -4 -13 -10 -16 -5 -3 -10 1 -10 9 0 9 5 16 10 16 6 0 10 -4 10 -9z
m27 -13 c-3 -8 -6 -5 -6 6 -1 11 2 17 5 13 3 -3 4 -12 1 -19z m-542 -45 c-7
-31 -23 -53 -36 -53 -14 0 -10 34 7 58 21 31 38 28 29 -5z m935 8 c14 -27 13
-51 -4 -51 -15 0 -26 21 -26 51 0 25 16 24 30 0z m-740 -31 c0 -5 -4 -10 -10
-10 -5 0 -10 5 -10 10 0 6 5 10 10 10 6 0 10 -4 10 -10z m780 -40 c0 -5 -12
-10 -27 -10 -22 0 -25 2 -13 10 20 13 40 13 40 0z m-949 -43 c-8 -8 -11 -5
-11 9 0 27 14 41 18 19 2 -9 -1 -22 -7 -28z m850 -31 c-11 -25 -26 -46 -31
-46 -14 0 -13 5 10 42 11 18 20 42 20 53 0 14 3 16 11 8 9 -9 6 -23 -10 -57z
m46 12 c-3 -8 -6 -5 -6 6 -1 11 2 17 5 13 3 -3 4 -12 1 -19z m-627 -67 c0 -5
-9 -19 -20 -32 -21 -26 -27 -11 -10 22 11 19 30 26 30 10z m344 -17 c9 -36 -1
-43 -14 -10 -12 33 -12 36 -1 36 5 0 12 -12 15 -26z m838 -79 c9 -19 8 -34 -2
-65 -15 -46 -36 -55 -102 -46 -24 3 -63 8 -88 11 -109 14 -110 14 -101 37 9
26 -14 58 -43 58 -13 0 -17 3 -10 10 9 9 73 13 257 18 74 2 78 1 89 -23z
m-1322 -579 c0 -3 -4 -8 -10 -11 -5 -3 -10 -1 -10 4 0 6 5 11 10 11 6 0 10 -2
10 -4z m-263 -62 c-3 -3 -12 -4 -19 -1 -8 3 -5 6 6 6 11 1 17 -2 13 -5z m-64
-21 c-7 -2 -21 -2 -30 0 -10 3 -4 5 12 5 17 0 24 -2 18 -5z m1806 -953 c0 -10
-3 -8 -9 5 -12 27 -12 43 0 25 5 -8 9 -22 9 -30z m-1473 -2147 c-6 -6 -36 9
-36 18 0 5 9 4 20 -3 10 -7 18 -14 16 -15z m1201 -80 c-2 -16 -4 -3 -4 27 0
30 2 43 4 28 2 -16 2 -40 0 -55z m-108 23 c-2 -2 -20 -6 -39 -10 -25 -4 -31
-3 -20 4 14 9 69 15 59 6z m-1599 -207 c0 -5 5 -9 11 -9 5 0 7 5 4 10 -10 16
7 12 27 -7 10 -9 18 -22 18 -29 0 -7 3 -14 8 -17 4 -2 1 -2 -6 0 -8 1 -24 3
-36 3 -31 0 -84 49 -66 60 15 9 40 2 40 -11z m1735 -15 c16 -38 13 -54 -11
-54 -8 0 -14 -4 -14 -10 0 -5 14 -10 31 -10 52 0 97 -38 84 -73 -8 -19 -136
-17 -160 3 -13 11 -18 11 -24 1 -7 -10 -23 -11 -74 -3 -92 14 -150 61 -99 79
9 4 21 12 25 20 4 7 24 13 42 13 21 0 43 8 54 19 15 15 29 17 69 13 48 -4 50
-3 45 17 -9 35 16 24 32 -15z m-1765 -39 c14 -7 51 -18 83 -26 32 -7 60 -16
63 -20 2 -5 -7 -16 -22 -26 -21 -13 -47 -17 -118 -16 -188 1 -188 1 -184 21 2
9 19 22 38 29 24 8 34 17 33 29 -1 10 4 22 10 26 14 9 62 1 97 -17z m-75 -123
c16 -5 13 -7 -14 -12 l-35 -5 27 -29 c26 -28 28 -29 47 -11 11 10 20 14 20 9
0 -5 -16 -22 -35 -39 l-34 -31 -3 -105 c-3 -100 -4 -104 -26 -107 -39 -6 -52
15 -52 79 0 63 -14 79 -25 28 -4 -17 -9 -28 -12 -25 -8 8 -32 -26 -33 -45 0
-9 7 -20 16 -23 25 -10 5 -26 -33 -26 -30 0 -34 3 -28 18 12 26 18 147 11 188
-5 25 -11 34 -22 30 -8 -3 -14 -1 -14 4 0 6 9 10 20 10 12 0 20 7 20 18 0 10
9 25 20 35 11 9 20 12 20 7 0 -6 9 -10 20 -10 15 0 22 9 27 31 6 30 7 31 52
24 25 -3 55 -9 66 -13z m60 -2 c-3 -5 -12 -7 -20 -3 -21 7 -19 13 6 13 11 0
18 -4 14 -10z m35 -74 c0 -2 -11 -6 -25 -8 -13 -3 -22 -1 -19 3 5 9 44 13 44
5z m1630 -56 c0 -5 -25 -10 -55 -10 -30 0 -55 5 -55 10 0 6 25 10 55 10 30 0
55 -4 55 -10z m-1480 -8 c0 -12 -71 -33 -83 -25 -16 10 24 33 55 33 15 0 28
-4 28 -8z m440 4 c0 -2 -7 -9 -15 -16 -12 -10 -15 -10 -15 4 0 9 7 16 15 16 8
0 15 -2 15 -4z m110 -4 c0 -10 -41 -35 -47 -28 -9 8 17 36 33 36 8 0 14 -3 14
-8z m160 -7 c0 -7 -109 -55 -123 -55 -21 0 9 20 59 40 52 20 64 23 64 15z
m417 -1 c-3 -3 -12 -4 -19 -1 -8 3 -5 6 6 6 11 1 17 -2 13 -5z m432 -125 c-2
-66 -7 -123 -11 -125 -4 -3 -8 51 -8 120 0 83 4 126 11 126 7 0 9 -40 8 -121z
m-579 103 c0 -4 -44 -16 -97 -25 -54 -10 -118 -23 -143 -28 -97 -21 -103 -22
-96 -11 3 6 28 14 54 18 26 3 56 9 67 11 11 3 51 11 89 19 38 7 71 16 74 19 8
8 52 6 52 -3z m-730 -22 c0 -10 -66 -8 -76 3 -4 4 11 7 34 7 23 0 42 -4 42
-10z"/>
<path d="M6108 1773 c7 -3 16 -2 19 1 4 3 -2 6 -13 5 -11 0 -14 -3 -6 -6z"/>
<path d="M4350 1501 c0 -5 5 -13 10 -16 6 -3 10 -2 10 4 0 5 -4 13 -10 16 -5
3 -10 2 -10 -4z"/>
<path d="M4995 8361 c-143 -11 -139 -42 6 -49 85 -4 91 -3 96 17 4 15 14 21
37 22 l31 1 -30 8 c-35 9 -35 9 -140 1z"/>
<path d="M5177 8356 c-3 -8 -3 -17 0 -20 13 -12 31 -5 36 14 4 15 0 20 -13 20
-10 0 -20 -6 -23 -14z"/>
<path d="M5812 8275 c0 -16 2 -22 5 -12 2 9 2 23 0 30 -3 6 -5 -1 -5 -18z"/>
<path d="M5810 8206 c0 -22 3 -27 11 -19 8 8 8 16 0 30 -9 16 -10 14 -11 -11z"/>
<path d="M5926 7928 c9 -55 109 -246 197 -378 45 -69 95 -146 110 -172 15 -27
30 -48 32 -48 11 0 -20 59 -70 137 -30 46 -55 86 -55 89 0 3 -24 43 -54 87
-56 86 -146 264 -146 291 0 8 -4 18 -10 21 -6 4 -8 -7 -4 -27z"/>
<path d="M4680 7319 c-7 -11 -10 -23 -7 -25 2 -2 9 7 15 21 14 30 7 33 -8 4z"/>
<path d="M6291 7283 c42 -70 69 -108 69 -97 0 12 -78 134 -86 134 -3 0 5 -17
17 -37z"/>
<path d="M6373 7155 c2 -5 31 -55 64 -110 102 -169 135 -228 154 -275 10 -25
18 -39 18 -32 1 25 -67 170 -107 229 -21 32 -51 78 -65 103 -24 42 -74 108
-64 85z"/>
<path d="M6652 6230 c0 -19 2 -27 5 -17 2 9 2 25 0 35 -3 9 -5 1 -5 -18z"/>
<path d="M4351 5853 c0 -4 4 -17 9 -28 8 -19 9 -19 9 2 1 12 -3 25 -9 28 -5 3
-10 3 -9 -2z"/>
<path d="M6635 5789 c-5 -45 -3 -75 3 -81 7 -7 11 15 14 71 2 44 0 81 -3 81
-4 0 -10 -32 -14 -71z"/>
<path d="M4402 5205 c0 -16 2 -22 5 -12 2 9 2 23 0 30 -3 6 -5 -1 -5 -18z"/>
<path d="M5140 5180 c0 -5 5 -10 10 -10 6 0 10 5 10 10 0 6 -4 10 -10 10 -5 0
-10 -4 -10 -10z"/>
<path d="M5370 5180 c-8 -5 -11 -12 -7 -16 4 -4 13 -2 19 4 15 15 7 24 -12 12z"/>
<path d="M5326 5171 c-4 -7 -5 -15 -2 -18 9 -9 19 4 14 18 -4 11 -6 11 -12 0z"/>
<path d="M5480 5170 c0 -5 -7 -10 -15 -10 -8 0 -15 -4 -15 -10 0 -5 6 -10 14
-10 8 0 16 -5 18 -12 3 -8 11 -9 24 -3 18 8 18 9 -3 12 -22 4 -33 23 -13 23 6
0 10 5 10 10 0 6 -4 10 -10 10 -5 0 -10 -4 -10 -10z"/>
<path d="M5520 5171 c0 -5 5 -13 10 -16 6 -3 10 -2 10 4 0 5 -4 13 -10 16 -5
3 -10 2 -10 -4z"/>
<path d="M5030 5160 c0 -5 5 -10 10 -10 6 0 10 5 10 10 0 6 -4 10 -10 10 -5 0
-10 -4 -10 -10z"/>
<path d="M5247 5164 c-4 -4 -7 -14 -7 -23 0 -11 3 -12 11 -4 6 6 10 16 7 23
-2 6 -7 8 -11 4z"/>
<path d="M5285 5160 c-3 -5 -1 -10 4 -10 6 0 11 5 11 10 0 6 -2 10 -4 10 -3 0
-8 -4 -11 -10z"/>
<path d="M5566 5157 c3 -10 9 -15 12 -12 3 3 0 11 -7 18 -10 9 -11 8 -5 -6z"/>
<path d="M5200 5141 c-6 -12 -7 -21 -1 -21 10 0 24 30 17 37 -2 3 -9 -5 -16
-16z"/>
<path d="M5385 5150 c-3 -5 -12 -7 -20 -3 -18 6 -20 -13 -3 -23 6 -4 14 -2 16
4 4 12 32 17 32 6 0 -9 -28 -34 -38 -34 -5 0 -21 10 -36 21 -15 12 -30 18 -34
14 -4 -4 1 -12 10 -19 16 -12 14 -15 -20 -31 -31 -15 -38 -23 -34 -42 3 -18 0
-23 -16 -23 -12 0 -42 -11 -67 -25 -25 -14 -49 -24 -53 -21 -4 3 -14 1 -21 -3
-10 -7 -9 -13 9 -31 21 -21 22 -21 35 -3 17 22 19 14 4 -24 -10 -27 -11 -27
-25 -9 -7 11 -17 17 -20 13 -4 -4 -12 1 -19 10 -11 14 -12 14 -18 0 -4 -11 3
-20 23 -29 36 -15 29 -28 -15 -28 -39 0 -52 14 -34 36 6 8 9 17 6 21 -4 3 -2
12 3 18 8 10 1 11 -32 5 -23 -5 -48 -6 -55 -3 -7 3 -13 1 -13 -5 0 -6 -13 -13
-29 -17 -29 -6 -46 -28 -35 -46 10 -17 22 -9 17 11 -3 11 0 20 6 20 27 0 5
-66 -28 -83 -24 -12 -31 -28 -34 -77 -1 -14 -5 -27 -9 -30 -11 -9 22 -152 45
-192 13 -25 36 -45 64 -59 23 -11 45 -25 49 -30 9 -15 44 -10 44 6 0 8 5 15
10 15 6 0 10 -7 10 -15 0 -8 4 -15 9 -15 5 0 11 7 15 15 9 23 35 18 73 -15
146 -128 405 -127 540 3 29 27 35 29 58 19 15 -7 24 -8 20 -2 -4 6 14 10 47
10 87 1 125 35 151 135 16 62 15 86 -2 44 -5 -13 -23 -37 -40 -53 -21 -20 -29
-36 -25 -48 7 -23 -18 -24 -36 -3 -11 13 -11 20 0 40 7 14 11 28 7 31 -3 3
-13 -8 -22 -25 -14 -29 -14 -33 0 -47 20 -20 13 -29 -12 -16 -9 6 -18 19 -19
29 -3 59 -4 64 -16 57 -7 -4 -10 -3 -5 1 4 5 17 10 29 12 17 3 19 1 8 -12 -17
-21 3 -19 23 3 8 9 16 19 16 22 0 3 3 13 7 23 10 27 -2 31 -25 8 -27 -27 -61
-28 -61 -1 0 11 5 20 10 20 6 0 10 7 10 15 0 8 -6 13 -12 11 -7 -1 -10 -1 -5
1 4 3 8 23 9 46 l1 42 4 -37 c5 -45 20 -59 52 -47 l24 9 -21 23 c-12 13 -22
26 -22 29 0 9 47 18 64 12 17 -7 19 -61 2 -84 -7 -10 -3 -9 10 3 27 23 40 22
58 -5 l16 -22 0 27 c0 15 -4 35 -9 45 -5 9 -12 24 -14 32 -9 29 -98 67 -169
73 -44 3 -69 0 -72 -7 -2 -6 -5 -1 -5 12 -1 22 -11 28 -25 15 -4 -5 -13 -8
-19 -8 -6 0 -14 -14 -19 -32 -5 -18 -13 -35 -18 -38 -6 -3 -10 -24 -10 -45 0
-30 5 -42 23 -52 12 -7 23 -21 23 -31 3 -29 -39 -17 -47 13 -5 18 -7 11 -7
-25 -1 -37 2 -45 8 -30 8 18 9 17 9 -7 1 -20 -4 -26 -17 -25 -17 1 -18 10 -14
130 4 121 4 129 -17 148 -11 11 -21 26 -21 34 0 8 -7 15 -15 15 -8 0 -15 5
-15 11 0 19 45 5 48 -16 2 -11 13 -30 25 -43 l21 -22 18 27 c10 16 18 22 18
16 0 -7 5 -13 11 -13 7 0 10 13 7 34 -3 30 -2 33 13 25 10 -5 20 -14 22 -21 4
-10 6 -9 6 1 1 8 9 19 18 26 14 10 10 13 -29 19 -26 4 -54 16 -63 26 -10 11
-29 20 -42 20 -16 0 -23 6 -23 18 0 22 -32 62 -49 62 -6 0 -11 5 -11 10 0 6 5
10 10 10 6 0 10 5 10 10 0 16 -30 12 -36 -5 -10 -24 -42 -17 -74 15 -30 30
-54 38 -65 20z m190 -110 c3 -5 1 -10 -4 -10 -6 0 -11 5 -11 10 0 6 2 10 4 10
3 0 8 -4 11 -10z m69 -75 c-4 -8 -10 -12 -15 -9 -14 8 -10 24 6 24 9 0 12 -6
9 -15z m-254 -5 c0 -5 -4 -10 -9 -10 -6 0 -13 5 -16 10 -3 6 1 10 9 10 9 0 16
-4 16 -10z m100 0 c0 -5 -4 -10 -9 -10 -6 0 -13 5 -16 10 -3 6 1 10 9 10 9 0
16 -4 16 -10z m-198 -33 c-12 -6 -22 -15 -22 -22 0 -7 -9 -20 -19 -29 -18 -16
-19 -31 -18 -147 1 -71 -1 -129 -5 -129 -5 0 -8 18 -8 40 0 22 -4 40 -10 40
-5 0 -10 -4 -10 -10 0 -5 -8 -10 -18 -10 -11 0 -18 7 -18 20 0 11 3 20 7 20 4
0 15 3 25 7 13 5 15 3 9 -8 -4 -8 -5 -11 0 -7 11 11 13 80 2 95 -18 25 -44 83
-35 77 6 -4 8 1 4 14 -4 11 -2 23 4 27 5 3 10 0 10 -7 0 -8 5 -19 12 -26 9 -9
17 -5 35 14 12 14 23 31 23 39 0 14 28 25 44 16 6 -2 0 -9 -12 -14z m-262 -7
c0 -5 -4 -10 -10 -10 -5 0 -10 5 -10 10 0 6 5 10 10 10 6 0 10 -4 10 -10z
m490 -46 c20 -51 17 -54 -74 -54 -75 0 -84 -2 -89 -20 -5 -18 0 -20 52 -20 39
0 71 -7 101 -22 44 -23 45 -24 45 -72 0 -44 -4 -52 -36 -78 -31 -25 -46 -30
-93 -30 -95 -1 -166 56 -123 99 20 20 49 10 70 -26 21 -36 45 -45 81 -31 53
20 47 78 -11 105 -26 13 -50 16 -90 12 -29 -3 -53 -4 -53 -3 0 1 6 25 14 52 8
27 17 62 20 77 7 28 8 28 76 26 39 -1 73 1 77 4 12 13 24 7 33 -19z m373 -65
c7 0 3 -4 -8 -8 -29 -12 -51 7 -28 25 15 10 19 10 21 -2 2 -8 9 -14 15 -15z
m-720 7 c4 -10 1 -13 -9 -9 -7 3 -14 9 -14 14 0 14 17 10 23 -5z m619 -78 c-7
-7 -12 -8 -12 -2 0 14 12 26 19 19 2 -3 -1 -11 -7 -17z m-113 -9 c-16 -10 -23
-4 -14 10 3 6 11 8 17 5 6 -4 5 -9 -3 -15z m118 -204 c0 -11 -4 -12 -14 -4 -7
6 -13 15 -13 20 0 5 6 6 13 3 8 -3 14 -11 14 -19z m-533 -52 c9 -9 -14 -33
-31 -33 -12 0 -13 3 -4 14 9 10 9 20 -1 41 -10 22 -9 28 3 35 11 7 15 2 20
-21 4 -16 9 -33 13 -36z m371 57 c3 -5 -1 -10 -9 -10 -9 0 -16 5 -16 10 0 6 4
10 9 10 6 0 13 -4 16 -10z m-350 -19 c3 -5 1 -12 -5 -16 -5 -3 -10 1 -10 9 0
18 6 21 15 7z m319 -8 c6 -14 9 -15 15 -4 7 10 10 10 16 1 4 -7 2 -16 -4 -20
-9 -5 -8 -10 2 -19 12 -9 16 -7 21 11 5 19 8 20 16 8 7 -11 4 -20 -13 -32 -12
-10 -26 -18 -32 -18 -14 0 -57 69 -50 80 9 15 22 12 29 -7z m-224 -40 c0 -17
-20 -17 -21 0 0 6 -9 -7 -20 -31 -21 -48 -43 -50 -29 -2 5 16 12 35 16 41 5 9
2 10 -9 6 -16 -6 -23 3 -11 15 9 10 74 -15 74 -29z m-170 11 c0 -8 -4 -12 -10
-9 -5 3 -10 10 -10 16 0 5 5 9 10 9 6 0 10 -7 10 -16z m321 -35 c12 -38 13
-39 24 -18 8 15 14 18 19 10 11 -17 -12 -41 -39 -41 -18 0 -25 8 -33 40 -5 21
-7 42 -4 45 13 12 22 3 33 -36z m-101 17 c0 -8 6 -17 13 -19 9 -4 9 -8 1 -14
-7 -4 -13 -16 -15 -26 -8 -36 -24 -21 -27 26 -2 37 0 47 12 47 9 0 16 -6 16
-14z m40 4 c0 -5 -4 -10 -10 -10 -5 0 -10 5 -10 10 0 6 5 10 10 10 6 0 10 -4
10 -10z m0 -69 c0 -12 -20 -25 -27 -18 -7 7 6 27 18 27 5 0 9 -4 9 -9z"/>
<path d="M5606 5145 c4 -8 10 -15 15 -15 4 0 6 7 3 15 -4 8 -10 15 -15 15 -4
0 -6 -7 -3 -15z"/>
<path d="M5015 5125 c-55 -12 -127 -32 -160 -44 -32 -12 -76 -21 -97 -21 -20
0 -40 -4 -43 -10 -11 -17 37 -11 144 20 58 17 147 39 199 50 52 10 97 21 100
24 11 12 -45 4 -143 -19z"/>
<path d="M5650 5138 c0 -9 5 -20 10 -23 13 -8 13 5 0 25 -8 13 -10 13 -10 -2z"/>
<path d="M5718 5133 c7 -3 16 -2 19 1 4 3 -2 6 -13 5 -11 0 -14 -3 -6 -6z"/>
<path d="M5154 5119 c-3 -6 -1 -16 5 -22 8 -8 11 -5 11 11 0 24 -5 28 -16 11z"/>
<path d="M5758 5123 c6 -2 18 -2 25 0 6 3 1 5 -13 5 -14 0 -19 -2 -12 -5z"/>
<path d="M5240 5110 c0 -5 12 -10 26 -10 14 0 23 4 19 10 -3 6 -15 10 -26 10
-10 0 -19 -4 -19 -10z"/>
<path d="M5593 5113 c-18 -6 -16 -23 1 -23 17 0 30 16 19 23 -5 2 -14 2 -20 0z"/>
<path d="M5690 5111 c0 -5 5 -13 10 -16 6 -3 10 -2 10 4 0 5 -4 13 -10 16 -5
3 -10 2 -10 -4z"/>
<path d="M5116 5097 c-6 -13 -3 -22 10 -32 22 -16 58 -20 49 -5 -3 6 -15 10
-25 10 -11 0 -20 9 -23 23 -3 20 -4 20 -11 4z"/>
<path d="M5190 5090 c0 -5 10 -10 23 -10 18 0 19 2 7 10 -19 13 -30 13 -30 0z"/>
<path d="M5635 5080 c-3 -5 3 -10 14 -10 11 0 23 5 26 10 3 6 -3 10 -14 10
-11 0 -23 -4 -26 -10z"/>
<path d="M5079 5070 c-4 -9 -1 -24 6 -33 13 -18 55 -24 55 -7 0 6 -11 10 -24
10 -18 0 -26 6 -28 23 -2 17 -5 18 -9 7z"/>
<path d="M5685 5050 c3 -5 13 -10 21 -10 8 0 14 5 14 10 0 6 -9 10 -21 10 -11
0 -17 -4 -14 -10z"/>
<path d="M5040 5029 c0 -11 5 -17 10 -14 6 3 10 13 10 21 0 8 -4 14 -10 14 -5
0 -10 -9 -10 -21z"/>
<path d="M5735 5020 c3 -5 13 -10 21 -10 8 0 12 5 9 10 -3 6 -13 10 -21 10 -8
0 -12 -4 -9 -10z"/>
<path d="M5010 5001 c0 -12 5 -21 10 -21 6 0 10 6 10 14 0 8 -4 18 -10 21 -5
3 -10 -3 -10 -14z"/>
<path d="M5050 4990 c0 -5 6 -10 14 -10 8 0 18 5 21 10 3 6 -3 10 -14 10 -12
0 -21 -4 -21 -10z"/>
<path d="M5740 4890 c0 -5 7 -7 15 -4 8 4 15 8 15 10 0 2 -7 4 -15 4 -8 0 -15
-4 -15 -10z"/>
<path d="M5940 4693 c1 -18 18 -35 24 -24 4 6 4 16 1 21 -7 12 -25 13 -25 3z"/>
<path d="M5827 4673 c-4 -3 -7 -11 -7 -17 0 -6 5 -5 12 2 6 6 9 14 7 17 -3 3
-9 2 -12 -2z"/>
<path d="M5934 4632 c-11 -9 -29 -30 -39 -47 l-18 -30 23 20 c21 19 65 75 58
75 -2 0 -12 -8 -24 -18z"/>
<path d="M5100 4411 c0 -12 5 -21 10 -21 6 0 10 6 10 14 0 8 -4 18 -10 21 -5
3 -10 -3 -10 -14z"/>
<path d="M5730 4392 c0 -17 4 -34 10 -37 6 -4 7 6 3 27 -8 44 -13 48 -13 10z"/>
<path d="M5030 4400 c0 -5 12 -10 26 -10 14 0 23 4 19 10 -3 6 -15 10 -26 10
-10 0 -19 -4 -19 -10z"/>
<path d="M5142 4380 c2 -10 -6 -26 -17 -34 -20 -15 -20 -15 3 -16 12 0 22 6
22 14 0 8 5 16 11 18 12 4 1 38 -13 38 -5 0 -8 -9 -6 -20z"/>
<path d="M5686 4381 c-4 -7 -5 -15 -2 -18 9 -9 19 4 14 18 -4 11 -6 11 -12 0z"/>
<path d="M5070 4370 c0 -5 9 -10 20 -10 11 0 20 5 20 10 0 6 -9 10 -20 10 -11
0 -20 -4 -20 -10z"/>
<path d="M5184 4355 c4 -11 0 -25 -11 -37 -17 -19 -17 -20 7 -17 20 3 25 10
25 33 0 16 -6 31 -14 34 -10 3 -12 0 -7 -13z"/>
<path d="M5642 4358 c-14 -14 -16 -28 -3 -28 9 0 24 30 18 36 -2 2 -9 -2 -15
-8z"/>
<path d="M5235 4330 c4 -14 1 -28 -11 -41 -19 -22 -7 -26 20 -6 20 15 19 58
-3 65 -9 3 -11 -2 -6 -18z"/>
<path d="M5592 4338 c-14 -14 -16 -28 -3 -28 9 0 24 30 18 36 -2 2 -9 -2 -15
-8z"/>
<path d="M5690 4330 c0 -5 7 -10 16 -10 8 0 12 5 9 10 -3 6 -10 10 -16 10 -5
0 -9 -4 -9 -10z"/>
<path d="M5292 4310 c11 -18 10 -23 -6 -36 -25 -18 -14 -29 14 -14 27 14 25
63 -3 68 -16 3 -17 1 -5 -18z"/>
<path d="M5530 4316 c-19 -24 -8 -61 20 -65 24 -3 25 -3 7 17 -15 16 -16 24
-7 41 12 24 -1 28 -20 7z"/>
<path d="M5340 4311 c0 -6 5 -13 11 -16 7 -5 2 -16 -12 -31 -12 -13 -18 -24
-13 -24 29 1 59 51 42 68 -14 14 -28 15 -28 3z"/>
<path d="M5474 4307 c-6 -18 13 -67 26 -67 15 0 12 16 -5 30 -11 9 -13 16 -5
24 5 5 10 14 10 18 0 13 -20 9 -26 -5z"/>
<path d="M5640 4305 c7 -8 20 -15 29 -15 13 1 13 3 -3 15 -26 19 -42 19 -26 0z"/>
<path d="M5580 4290 c0 -13 28 -25 38 -16 3 4 0 11 -8 16 -20 13 -30 12 -30 0z"/>
<path d="M5411 4257 c2 -1 13 -9 24 -17 19 -14 19 -14 6 3 -7 9 -18 17 -24 17
-6 0 -8 -1 -6 -3z"/>
<path d="M4710 4191 c0 -10 234 -19 703 -26 213 -4 317 -2 317 5 0 5 -17 10
-37 10 -21 0 -126 2 -233 5 -555 13 -750 15 -750 6z"/>
<path d="M5765 4170 c3 -5 10 -10 16 -10 5 0 9 5 9 10 0 6 -7 10 -16 10 -8 0
-12 -4 -9 -10z"/>
<path d="M4510 4110 c0 -3 7 -14 16 -25 12 -17 14 -53 8 -245 -5 -173 -10
-229 -20 -241 -13 -15 -10 -17 33 -22 56 -6 64 -2 37 17 -17 13 -19 28 -19
185 0 94 3 167 6 163 4 -4 29 -82 55 -174 38 -137 50 -168 65 -168 23 0 23 0
70 137 22 65 45 123 50 128 7 7 10 -29 8 -110 -2 -147 -6 -165 -30 -165 -22 0
-26 -25 -6 -33 8 -3 86 -6 175 -6 155 -2 162 -1 162 18 0 11 -4 23 -10 26 -6
4 -10 86 -10 215 0 175 2 209 15 214 8 3 15 15 15 26 0 18 -6 20 -80 20 -72 0
-80 -2 -80 -19 0 -10 7 -21 15 -25 23 -8 22 -421 -1 -430 -24 -9 -52 -7 -59 4
-3 6 -6 110 -5 233 0 215 1 223 22 238 13 10 19 23 15 33 -5 13 -22 16 -92 16
-77 0 -85 -2 -85 -19 0 -10 7 -21 15 -25 19 -7 19 -45 1 -88 -15 -37 -55 -168
-63 -210 -3 -16 -8 -28 -12 -28 -3 0 -15 30 -25 68 -11 37 -32 109 -49 161
-27 86 -28 96 -13 106 9 7 16 15 16 18 0 3 -32 7 -70 9 -39 2 -70 1 -70 -2z"/>
<path d="M6226 4065 c-14 -13 -26 -34 -26 -47 l0 -22 16 22 c30 43 94 16 94
-40 0 -13 -9 -51 -20 -84 -11 -32 -33 -97 -48 -143 -16 -47 -33 -86 -38 -88
-9 -3 -114 310 -114 340 0 9 6 19 13 24 11 7 -99 22 -115 15 -4 -1 1 -17 12
-35 16 -28 66 -166 142 -395 15 -46 25 -62 37 -60 11 2 38 68 88 218 40 118
73 227 73 241 0 33 -27 65 -61 73 -20 4 -33 -1 -53 -19z"/>
<path d="M5150 4055 c0 -9 6 -26 13 -38 19 -34 11 -427 -9 -427 -8 0 -14 -8
-14 -19 0 -16 12 -19 137 -24 76 -3 139 -5 140 -4 0 1 -6 48 -15 105 -13 80
-20 102 -32 100 -11 -2 -16 -21 -20 -64 -6 -68 -23 -96 -54 -92 -20 3 -21 8
-19 143 1 77 3 173 3 213 0 57 3 72 15 72 9 0 15 9 15 25 0 25 -1 25 -80 25
-65 0 -80 -3 -80 -15z"/>
<path d="M5513 4051 c-47 -29 -81 -95 -93 -182 -14 -97 1 -207 35 -265 62
-106 192 -88 224 31 15 55 15 55 -20 55 -18 0 -28 -4 -24 -10 10 -16 -15 -79
-36 -90 -26 -14 -57 3 -66 38 -5 15 -8 95 -7 177 1 158 15 225 48 225 20 0 44
-38 61 -92 7 -25 19 -44 29 -46 14 -3 16 9 16 87 0 93 -8 109 -38 79 -10 -10
-17 -10 -32 0 -28 17 -60 15 -97 -7z"/>
<path d="M5796 4038 c-76 -57 -110 -254 -65 -373 59 -157 175 -168 240 -23 20
46 24 69 24 168 0 100 -3 120 -22 156 -47 88 -117 116 -177 72z m99 -22 c35
-54 27 -395 -10 -436 -24 -27 -41 -25 -61 5 -13 20 -16 54 -16 189 0 161 2
182 24 239 13 34 42 35 63 3z"/>
<path d="M4690 3459 c36 -10 1169 -26 1160 -16 -7 8 -309 16 -780 21 -284 4
-404 2 -380 -5z"/>
<path d="M5042 3323 c-22 -9 -42 -61 -42 -112 0 -82 62 -136 114 -98 11 8 16
22 14 38 l-4 24 -14 -27 c-7 -16 -19 -28 -25 -28 -27 0 -36 29 -33 107 3 73 4
78 26 81 17 3 25 -2 29 -17 7 -29 23 -26 23 3 0 32 -45 47 -88 29z"/>
<path d="M5725 3320 c-79 -30 -85 -191 -8 -221 40 -15 73 2 73 38 l-1 28 -15
-27 c-30 -57 -64 -20 -64 70 0 90 27 125 63 81 19 -24 37 -18 21 8 -14 22 -45
32 -69 23z"/>
<path d="M5170 3316 c0 -1 -1 -48 -3 -106 l-2 -105 48 -2 c26 -2 47 1 47 5 0
4 4 24 9 45 11 45 -1 50 -14 5 -6 -18 -17 -33 -25 -33 -12 0 -16 16 -18 72 -2
40 2 81 7 92 9 16 7 19 -19 23 -17 3 -30 4 -30 4z"/>
<path d="M5464 3295 c-20 -20 -22 -28 -14 -51 6 -15 24 -43 41 -62 32 -36 35
-65 7 -70 -10 -2 -23 8 -32 25 -13 25 -15 26 -22 10 -16 -42 65 -69 93 -31 21
29 15 60 -22 104 -36 44 -46 80 -20 80 8 0 21 -12 30 -27 l15 -28 -2 29 c-4
43 -41 54 -74 21z"/>
<path d="M5311 3219 c-13 -50 -25 -98 -28 -105 -3 -9 2 -14 16 -14 18 0 20 4
15 25 -6 23 -3 25 26 25 29 0 32 -2 26 -25 -6 -23 -4 -25 29 -25 38 0 40 2 25
28 -6 9 -18 53 -28 97 -15 66 -21 81 -38 83 -18 3 -23 -8 -43 -89z m49 -16 c8
-31 7 -33 -17 -33 -22 0 -24 3 -18 33 4 17 9 41 13 52 l6 20 4 -20 c2 -11 7
-35 12 -52z"/>
<path d="M5580 3290 c12 -23 10 -159 -2 -166 -18 -12 -6 -24 25 -24 l32 0 0
105 0 105 -33 0 c-30 0 -32 -2 -22 -20z"/>
<path d="M4740 3101 c0 -5 12 -12 28 -16 24 -6 62 -36 62 -50 0 -3 -7 -5 -16
-5 -8 0 -12 -4 -9 -10 3 -5 -1 -10 -9 -10 -9 0 -16 5 -16 11 0 7 -7 8 -17 4
-10 -4 -23 -8 -30 -8 -7 0 -10 -4 -7 -9 3 -5 14 -6 25 -3 11 4 26 0 35 -10 15
-15 18 -14 32 6 l15 22 13 -24 c7 -13 13 -34 14 -46 0 -21 -5 -23 -52 -24 -39
-1 -46 -3 -28 -8 22 -6 23 -8 7 -14 -10 -4 -27 -7 -37 -7 -10 0 -22 -5 -26
-12 -4 -6 -3 -8 4 -4 6 3 13 2 17 -4 3 -6 -1 -13 -9 -16 -9 -3 -16 -15 -16
-27 0 -11 2 -18 6 -15 3 3 25 0 49 -7 40 -13 44 -12 62 8 69 78 51 205 -36
264 -35 24 -61 30 -61 14z m40 -261 c-20 -13 -43 -13 -35 0 3 6 16 10 28 10
18 0 19 -2 7 -10z m45 -19 c-6 -5 -25 10 -25 20 0 5 6 4 14 -3 8 -7 12 -15 11
-17z"/>
<path d="M5180 3001 c0 -5 12 -14 28 -19 25 -10 25 -10 4 -11 -13 -1 -21 -5
-17 -10 3 -5 -5 -11 -17 -13 -15 -2 -23 -10 -23 -23 0 -19 7 -20 118 -21 94
-1 119 2 126 13 7 13 12 13 39 -1 38 -20 72 -21 72 -2 0 8 5 16 12 18 17 6 0
28 -21 28 -10 0 -24 -7 -31 -15 -10 -12 -15 -13 -21 -4 -13 21 -53 18 -71 -5
l-18 -21 0 23 c0 30 -45 30 -76 1 -13 -12 -30 -19 -38 -16 -24 10 -19 26 6 19
17 -4 20 -2 15 11 -3 9 -1 19 5 23 6 4 -4 13 -22 20 -37 16 -70 18 -70 5z
m142 -73 c-7 -7 -12 -8 -12 -2 0 14 12 26 19 19 2 -3 -1 -11 -7 -17z m188 13
c0 -6 -4 -13 -10 -16 -5 -3 -10 1 -10 9 0 9 5 16 10 16 6 0 10 -4 10 -9z"/>
<path d="M5538 2983 c17 -2 47 -2 65 0 17 2 3 4 -33 4 -36 0 -50 -2 -32 -4z"/>
<path d="M5546 2941 c-24 -27 -14 -39 33 -39 34 -1 40 3 44 24 3 18 0 24 -14
24 -9 0 -24 2 -31 5 -8 3 -22 -3 -32 -14z m44 -11 c0 -5 -7 -10 -16 -10 -8 0
-12 5 -9 10 3 6 10 10 16 10 5 0 9 -4 9 -10z"/>
<path d="M4920 2814 c-29 -10 -27 -20 4 -15 4 1 23 2 42 3 20 1 33 6 31 12 -5
15 -36 15 -77 0z"/>
<path d="M5027 2795 c20 -28 33 -32 33 -10 0 8 -9 19 -19 25 -30 16 -34 12
-14 -15z"/>
<path d="M5760 2786 c0 -9 5 -16 10 -16 6 0 10 4 10 9 0 6 -4 13 -10 16 -5 3
-10 -1 -10 -9z"/>
<path d="M4964 2774 c3 -8 1 -14 -3 -14 -5 0 -11 5 -13 12 -9 25 -48 -26 -45
-59 l2 -31 29 16 c16 10 31 25 34 35 2 9 8 17 13 17 13 0 11 -14 -3 -28 -6 -6
-9 -14 -6 -18 8 -7 38 49 38 69 0 9 -10 15 -26 15 -17 0 -24 -5 -20 -14z"/>
<path d="M5067 2776 c-5 -14 15 -41 24 -32 2 2 5 -7 6 -21 0 -14 7 -29 13 -33
7 -4 10 -12 6 -18 -3 -6 -1 -14 5 -18 8 -4 7 -9 -2 -15 -11 -7 -10 -11 6 -24
13 -10 15 -15 5 -12 -8 2 -21 16 -28 31 -8 15 -24 31 -36 36 -12 4 -28 15 -35
24 -11 14 -11 16 3 16 9 0 16 7 16 15 0 24 -27 17 -34 -9 -4 -17 -15 -26 -35
-31 -23 -5 -31 -14 -37 -38 -4 -18 -7 -35 -6 -39 3 -12 -12 -10 -25 3 -7 7
-17 8 -25 3 -7 -5 -21 -7 -30 -6 -11 2 -18 -3 -18 -12 0 -9 6 -13 14 -10 7 3
16 -2 19 -10 8 -21 44 -20 56 1 5 10 13 14 17 10 5 -5 2 -12 -5 -16 -11 -7
-10 -13 8 -32 11 -12 21 -19 21 -15 0 5 7 3 15 -4 18 -15 38 -3 32 21 -3 10 0
20 7 23 7 3 5 10 -6 19 -10 8 -18 19 -18 26 0 6 -10 11 -22 12 -13 0 -17 3
-10 6 6 2 12 9 12 14 0 6 -4 7 -10 4 -5 -3 -10 -2 -10 3 0 6 13 15 29 20 31
11 41 2 41 -38 0 -11 8 -24 18 -29 13 -8 14 -12 4 -19 -11 -7 -11 -11 0 -20
19 -15 48 -9 64 13 8 11 14 13 14 6 0 -7 5 -9 10 -6 17 10 11 94 -9 138 -25
54 -56 85 -64 63z"/>
<path d="M5302 2769 c-115 -57 -155 -199 -88 -314 42 -70 91 -98 179 -99 68
-1 72 0 73 22 1 16 -4 22 -20 23 -11 0 1 7 27 15 38 12 55 25 79 59 18 25 34
43 36 40 10 -9 -50 -95 -78 -112 -17 -9 -30 -21 -30 -25 0 -26 63 19 94 66 56
86 57 168 5 250 -55 87 -182 122 -277 75z m-4 -38 c-25 -16 -49 -38 -52 -49
-4 -11 -13 -23 -21 -26 -20 -7 -19 -3 4 23 11 13 21 26 23 30 6 13 63 50 77
51 8 0 -6 -13 -31 -29z m248 -23 c41 -44 57 -91 30 -86 -8 2 -15 -1 -14 -7 0
-5 4 -9 9 -7 5 1 9 -2 9 -8 0 -5 -4 -10 -10 -10 -5 0 -10 -17 -10 -37 0 -43
-13 -69 -29 -59 -7 4 -9 1 -5 -8 3 -8 -4 -24 -15 -35 -16 -16 -28 -19 -58 -14
-21 3 -46 10 -55 15 -12 5 -18 5 -18 -2 0 -16 -30 -12 -36 5 -4 8 -15 15 -25
15 -10 0 -19 4 -19 9 0 10 77 7 87 -3 3 -3 10 -3 16 1 17 10 81 11 94 1 8 -7
10 -3 6 11 -6 23 -15 24 -122 22 -80 -2 -101 15 -101 84 0 31 -4 45 -11 43
-16 -5 -21 -61 -9 -93 5 -14 6 -25 1 -25 -14 0 -21 27 -21 76 0 70 40 131 50
76 4 -20 12 -28 33 -30 19 -2 27 -9 27 -23 0 -24 2 -24 50 0 32 15 40 16 40 5
0 -8 5 -14 10 -14 6 0 10 14 10 32 0 17 3 28 8 24 7 -8 8 -13 11 -41 0 -8 11
-15 22 -15 20 0 21 1 5 25 -14 21 -14 25 -2 25 8 0 16 8 18 18 3 13 7 11 21
-13 12 -22 16 -25 17 -12 0 11 -21 39 -47 64 -40 38 -43 43 -18 30 17 -8 40
-26 51 -39z m-82 22 c14 -5 26 -14 26 -20 0 -7 -7 -7 -21 0 -27 15 -66 5 -72
-18 -4 -13 -5 -11 -6 6 -1 15 -7 22 -21 22 -11 0 -20 5 -20 10 0 13 81 13 114
0z m-134 -4 c0 -3 -4 -8 -10 -11 -5 -3 -10 -1 -10 4 0 6 5 11 10 11 6 0 10 -2
10 -4z m50 -46 c0 -16 -7 -20 -30 -20 -16 0 -30 5 -30 11 0 7 10 9 25 5 18 -5
25 -2 25 9 0 8 2 15 5 15 3 0 5 -9 5 -20z m65 -20 c-3 -5 -18 -10 -33 -9 l-27
1 25 8 c35 11 42 11 35 0z m-164 -193 c12 -22 12 -22 -10 -3 -11 11 -21 23
-21 28 0 14 19 -1 31 -25z m6 -35 c10 -6 39 -8 64 -5 l44 5 -28 -16 c-15 -8
-35 -13 -45 -10 -14 5 -14 3 2 -10 23 -18 14 -21 -15 -5 -11 5 -16 15 -13 21
5 7 2 8 -6 3 -12 -8 -70 50 -70 70 1 6 11 -2 24 -16 13 -15 32 -31 43 -37z
m156 -9 c-7 -2 -19 -2 -25 0 -7 3 -2 5 12 5 14 0 19 -2 13 -5z m-35 -50 c-10
-2 -26 -2 -35 0 -10 3 -2 5 17 5 19 0 27 -2 18 -5z"/>
<path d="M5315 2590 c-8 -14 3 -30 21 -30 8 0 14 9 14 20 0 21 -24 28 -35 10z"/>
<path d="M5364 2586 c-8 -22 -1 -59 14 -64 6 -2 12 3 12 12 0 9 5 16 10 16 6
0 10 -7 10 -15 0 -9 6 -12 15 -9 22 9 18 34 -4 34 -11 0 -23 5 -27 11 -4 8 0
9 15 4 15 -5 21 -2 21 9 0 21 -58 22 -66 2z"/>
<path d="M5457 2593 c-3 -4 -5 -20 -5 -36 0 -21 6 -29 25 -33 31 -8 45 6 41
42 -2 23 -9 30 -30 32 -14 2 -28 0 -31 -5z m33 -34 c0 -16 -4 -28 -9 -25 -8 5
-3 56 5 56 2 0 4 -14 4 -31z"/>
<path d="M5705 2760 c-3 -5 -1 -10 4 -10 6 0 11 5 11 10 0 6 -2 10 -4 10 -3 0
-8 -4 -11 -10z"/>
<path d="M5680 2730 c0 -5 7 -10 15 -10 8 0 15 -8 15 -17 0 -13 3 -14 11 -6 9
9 8 16 -4 27 -18 18 -37 21 -37 6z"/>
<path d="M5740 2710 c0 -11 5 -20 10 -20 6 0 10 5 10 10 0 7 6 7 20 0 13 -7
20 -7 20 -1 0 11 -32 31 -49 31 -6 0 -11 -9 -11 -20z"/>
<path d="M5657 2691 c-3 -12 -1 -21 3 -21 15 0 23 21 12 32 -6 6 -11 2 -15
-11z"/>
<path d="M4796 2692 c-3 -6 -1 -14 5 -17 15 -10 25 3 12 16 -7 7 -13 7 -17 1z"/>
<path d="M5684 2648 c-5 -8 -2 -9 9 -5 10 3 17 2 17 -2 0 -5 -6 -11 -12 -13
-7 -3 2 -5 20 -5 24 0 31 4 27 14 -3 8 -5 17 -5 19 0 10 -49 3 -56 -8z"/>
<path d="M4900 2640 c0 -5 7 -10 15 -10 8 0 15 5 15 10 0 6 -7 10 -15 10 -8 0
-15 -4 -15 -10z"/>
<path d="M4990 2640 c0 -5 5 -10 11 -10 5 0 7 5 4 10 -3 6 -8 10 -11 10 -2 0
-4 -4 -4 -10z"/>
<path d="M5765 2640 c3 -5 8 -10 11 -10 2 0 4 5 4 10 0 6 -5 10 -11 10 -5 0
-7 -4 -4 -10z"/>
<path d="M5651 2614 c0 -11 3 -14 6 -6 3 7 2 16 -1 19 -3 4 -6 -2 -5 -13z"/>
<path d="M5112 2548 c-14 -14 -16 -28 -3 -28 9 0 24 30 18 36 -2 2 -9 -2 -15
-8z"/>
<path d="M5066 2514 c-9 -23 -7 -34 5 -34 6 0 9 6 6 14 -3 7 0 19 6 25 8 8 8
11 0 11 -6 0 -14 -7 -17 -16z"/>
<path d="M4840 2511 c0 -5 7 -14 15 -21 16 -14 18 -10 9 14 -6 17 -24 22 -24
7z"/>
<path d="M5015 2497 c-11 -7 -21 -17 -22 -23 -3 -17 35 -5 42 13 8 21 3 23
-20 10z"/>
<path d="M4896 2484 c-5 -14 -4 -15 9 -4 17 14 19 20 6 20 -5 0 -12 -7 -15
-16z"/>
<path d="M4845 2240 c70 -9 671 -23 663 -15 -2 3 -103 7 -224 10 -120 3 -282
7 -359 9 -95 3 -121 1 -80 -4z"/>
<path d="M6572 2225 c0 -16 2 -22 5 -12 2 9 2 23 0 30 -3 6 -5 -1 -5 -18z"/>
<path d="M5538 2223 c12 -2 30 -2 40 0 9 3 -1 5 -23 4 -22 0 -30 -2 -17 -4z"/>
<path d="M5608 2223 c6 -2 18 -2 25 0 6 3 1 5 -13 5 -14 0 -19 -2 -12 -5z"/>
<path d="M5688 2223 c18 -2 45 -2 60 0 15 2 0 4 -33 4 -33 0 -45 -2 -27 -4z"/>
<path d="M4516 2137 c3 -10 9 -15 12 -12 3 3 0 11 -7 18 -10 9 -11 8 -5 -6z"/>
<path d="M4146 1765 c4 -8 13 -15 21 -15 13 0 13 3 3 15 -7 8 -16 15 -21 15
-5 0 -6 -7 -3 -15z"/>
<path d="M6641 1424 c0 -11 3 -14 6 -6 3 7 2 16 -1 19 -3 4 -6 -2 -5 -13z"/>
<path d="M4151 1374 c0 -11 3 -14 6 -6 3 7 2 16 -1 19 -3 4 -6 -2 -5 -13z"/>
<path d="M4711 1379 c-30 -12 -27 -15 29 -22 52 -7 85 6 60 23 -19 12 -57 12
-89 -1z"/>
<path d="M5220 1380 c0 -5 23 -10 50 -10 28 0 50 5 50 10 0 6 -22 10 -50 10
-27 0 -50 -4 -50 -10z"/>
<path d="M5468 1363 c7 -3 16 -2 19 1 4 3 -2 6 -13 5 -11 0 -14 -3 -6 -6z"/>
<path d="M5557 1349 c4 -13 9 -17 15 -11 11 11 3 32 -12 32 -4 0 -6 -9 -3 -21z"/>
<path d="M5703 1364 c-7 -3 -13 -10 -13 -15 0 -13 69 -7 70 6 1 11 -38 17 -57
9z"/>
<path d="M5947 1361 c-30 -11 -15 -25 32 -28 52 -3 66 4 50 23 -12 15 -52 17
-82 5z"/>
<path d="M4182 1327 c-1 -17 3 -38 7 -46 14 -22 23 22 12 53 -14 34 -18 33
-19 -7z"/>
<path d="M5115 1349 c-4 -6 -5 -12 -4 -13 8 -7 69 7 69 15 0 13 -57 11 -65 -2z"/>
<path d="M4950 1333 c-49 -6 -63 -23 -18 -23 42 0 68 8 68 21 0 5 -3 8 -7 7
-5 0 -24 -3 -43 -5z"/>
<path d="M5360 1321 c0 -6 4 -13 10 -16 6 -3 7 1 4 9 -7 18 -14 21 -14 7z"/>
<path d="M4620 1296 c0 -2 18 -6 40 -8 22 -2 40 0 40 4 0 5 -18 8 -40 8 -22 0
-40 -2 -40 -4z"/>
<path d="M5530 1289 c0 -5 5 -7 10 -4 6 3 10 8 10 11 0 2 -4 4 -10 4 -5 0 -10
-5 -10 -11z"/>
<path d="M5405 1280 c3 -5 8 -10 11 -10 2 0 4 5 4 10 0 6 -5 10 -11 10 -5 0
-7 -4 -4 -10z"/>
<path d="M5252 1269 c-36 -11 -38 -32 -4 -37 15 -2 22 2 22 13 0 13 6 16 21
12 16 -4 18 -3 8 9 -6 8 -12 14 -13 13 0 0 -16 -5 -34 -10z"/>
<path d="M5518 1253 c6 -2 18 -2 25 0 6 3 1 5 -13 5 -14 0 -19 -2 -12 -5z"/>
<path d="M5404 1234 c3 -9 6 -18 6 -20 0 -7 63 -3 90 6 20 7 16 8 -22 9 -26 1
-50 6 -53 11 -10 16 -28 11 -21 -6z"/>
<path d="M6237 1239 c7 -7 15 -10 18 -7 3 3 -2 9 -12 12 -14 6 -15 5 -6 -5z"/>
<path d="M4915 1220 c-48 -5 -37 -7 58 -7 65 0 116 1 115 2 -9 8 -122 11 -173
5z"/>
<path d="M5530 1220 c0 -5 15 -10 33 -9 27 0 29 2 12 9 -28 12 -45 12 -45 0z"/>
<path d="M6370 1210 c0 -5 5 -10 10 -10 20 0 9 -29 -12 -33 l-23 -4 23 -2 c26
-1 30 -21 3 -21 -10 0 -39 3 -64 6 -41 6 -45 9 -37 25 14 24 13 28 -7 25 -9
-2 -20 -14 -24 -28 -6 -23 -3 -27 30 -36 44 -13 133 -18 148 -9 7 4 14 3 18
-3 9 -14 42 -13 49 3 5 10 7 10 12 0 8 -18 37 -17 31 1 -4 9 4 16 24 20 46 9
34 21 -18 18 -27 -2 -66 4 -88 12 l-40 15 43 0 c30 1 42 5 40 14 -6 15 -118
23 -118 7z"/>
<path d="M4278 1203 c7 -3 16 -2 19 1 4 3 -2 6 -13 5 -11 0 -14 -3 -6 -6z"/>
<path d="M5810 1200 c0 -5 12 -10 28 -9 24 0 25 1 7 9 -27 12 -35 12 -35 0z"/>
<path d="M4510 1170 c-38 -23 -67 -23 -173 -1 -33 7 -62 10 -65 7 -10 -11 6
-18 42 -19 28 -1 33 -4 24 -14 -8 -10 -6 -13 6 -13 9 0 16 -6 16 -12 0 -8 3
-9 8 -3 4 6 34 11 67 13 59 3 115 18 115 31 0 9 449 2 840 -12 108 -4 817 16
830 24 19 11 58 10 -395 10 -976 -1 -1135 -1 -1205 4 -64 4 -80 2 -110 -15z"/>
<path d="M4235 1140 c-3 -5 -1 -10 4 -10 6 0 11 5 11 10 0 6 -2 10 -4 10 -3 0
-8 -4 -11 -10z"/>
<path d="M4570 1125 c0 -20 17 -28 36 -17 17 9 13 14 -18 25 -12 4 -18 1 -18
-8z"/>
<path d="M4277 1109 c7 -7 15 -10 18 -7 3 3 -2 9 -12 12 -14 6 -15 5 -6 -5z"/>
<path d="M5344 1105 c11 -8 35 -15 53 -15 18 0 33 -4 33 -10 0 -5 9 -10 20
-10 11 0 20 7 20 15 0 8 -7 15 -16 15 -8 0 -12 5 -9 10 4 6 -17 10 -57 10 -58
-1 -61 -2 -44 -15z"/>
<path d="M6245 1096 c-19 -14 -17 -15 28 -16 26 0 47 5 47 10 0 6 -6 10 -14
10 -8 0 -20 2 -28 5 -7 3 -22 -1 -33 -9z"/>
<path d="M4325 1090 c3 -5 21 -10 38 -10 24 0 28 3 17 10 -20 13 -63 13 -55 0z"/>
<path d="M5335 1080 c3 -5 11 -10 16 -10 6 0 7 5 4 10 -3 6 -11 10 -16 10 -6
0 -7 -4 -4 -10z"/>
<path d="M6410 1070 c0 -5 4 -10 9 -10 6 0 13 5 16 10 3 6 -1 10 -9 10 -9 0
-16 -4 -16 -10z"/>
<path d="M5813 1033 c4 -6 3 -14 -3 -18 -22 -13 -8 -25 30 -25 43 0 48 6 27
35 -10 13 -16 15 -21 6 -6 -9 -11 -9 -24 1 -10 8 -13 9 -9 1z"/>
<path d="M5991 1026 c-17 -20 -1 -27 61 -26 93 2 199 12 193 18 -9 10 -155 9
-161 0 -6 -9 -53 0 -70 14 -7 5 -16 3 -23 -6z"/>
<path d="M4580 1021 c-29 -9 56 -19 175 -21 39 -1 112 -2 163 -3 50 -1 92 1
92 6 0 7 -84 11 -143 7 -15 -1 -35 4 -43 10 -10 9 -17 10 -28 1 -13 -11 -120
-9 -171 3 -11 2 -31 1 -45 -3z"/>
<path d="M5509 1014 c-7 -9 1 -13 31 -16 31 -3 40 0 38 11 -4 17 -55 21 -69 5z"/>
<path d="M5703 1008 c-15 -17 -14 -18 30 -18 33 0 47 4 47 14 0 22 -57 26 -77
4z"/>
<path d="M5020 1011 c0 -11 78 -26 87 -17 10 10 -1 15 -45 21 -23 3 -42 1 -42
-4z"/>
<path d="M5127 1003 c4 -10 29 -12 97 -9 50 3 131 5 180 5 49 1 86 4 82 9 -4
4 -88 7 -186 7 -138 0 -176 -3 -173 -12z"/>
<path d="M5606 1013 c-15 -15 -3 -23 34 -23 50 0 55 24 6 27 -19 1 -37 -1 -40
-4z"/>
<path d="M5896 1008 c8 -12 74 -10 74 2 0 6 -17 10 -39 8 -22 -1 -38 -5 -35
-10z"/>
</g>
</svg>
